<?xml version="1.0" encoding="utf-8"?>
<!-- Generator: Adobe Illustrator 18.1.1, SVG Export Plug-In . SVG Version: 6.00 Build 0)  -->
<svg version="1.1" id="Layer_1" xmlns="http://www.w3.org/2000/svg" xmlns:xlink="http://www.w3.org/1999/xlink" x="0px" y="0px"
	 viewBox="0 0 800 600" enable-background="new 0 0 800 600" xml:space="preserve">
<g>
	<defs>
		<polygon id="SVGID_1_" points="94.4,487.9 61.7,516.4 25,489 25,58.3 775,58.3 775,490.4 749.4,509.5 749.4,177.9 638.1,177.9 
			638.1,498.5 625.6,487.9 603.9,503.1 603.9,177.9 161.9,177.9 161.9,493.6 134,516.4 		"/>
	</defs>
	<clipPath id="SVGID_2_">
		<use xlink:href="#SVGID_1_"  overflow="visible"/>
	</clipPath>
	<rect x="17.2" y="50.6" clip-path="url(#SVGID_2_)" fill="#FFFFFF" width="765.5" height="473.6"/>
</g>
<g>
	<defs>
		<path id="SVGID_3_" d="M776.5,56.9H23.5v432.8l38.2,28.5l32.7-28.5l39.6,28.5l29.2-23.9v-315h439.2v326.5l23-16.1l14,11.9V179.3
			h108.4v333l28.5-21.2V56.9z M773.6,59.7v430l-22.8,17V179.3v-2.8h-2.9H639.6h-2.9v2.8v316.1l-9.3-7.9l-1.7-1.4l-1.8,1.3l-18.5,13
			v-321v-2.8h-2.9H163.3h-2.9v2.8v313.5L134,514.7l-37.9-27.2l-1.8-1.3l-1.7,1.5l-31,27l-35.2-26.2V59.7H773.6z"/>
	</defs>
	<clipPath id="SVGID_4_">
		<use xlink:href="#SVGID_3_"  overflow="visible"/>
	</clipPath>
	<rect x="15.8" y="49.2" clip-path="url(#SVGID_4_)" fill="#E5E5E5" width="768.4" height="476.7"/>
</g>
<g>
	<defs>
		<polygon id="SVGID_5_" points="602.5,179.3 163.3,179.3 163.3,494.3 169.4,489.7 205.2,518.2 244.6,489.7 285.2,518.2 
			322.2,489.7 359.2,518.2 398.6,489.7 433.2,518.2 471.4,489.7 511.9,518.2 548.9,489.7 585.9,518.2 602.5,505.8 		"/>
	</defs>
	<clipPath id="SVGID_6_">
		<use xlink:href="#SVGID_5_"  overflow="visible"/>
	</clipPath>
	<rect x="155.6" y="171.6" clip-path="url(#SVGID_6_)" fill="#E5E5E5" width="454.6" height="354.3"/>
</g>
<g>
	<defs>
		<path id="SVGID_7_" d="M54.9,159.4c0-22,17.9-39.9,39.9-39.9s39.9,17.8,39.9,39.9c0,22-17.9,39.9-39.9,39.9S54.9,181.4,54.9,159.4
			C54.9,159.4,54.9,181.4,54.9,159.4z"/>
	</defs>
	<clipPath id="SVGID_8_">
		<use xlink:href="#SVGID_7_"  overflow="visible"/>
	</clipPath>
	<rect x="47.2" y="111.8" clip-path="url(#SVGID_8_)" fill="#E5E5E5" width="95.3" height="95.2"/>
</g>
<g>
	<defs>
		<polygon id="SVGID_9_" points="747.9,512.4 747.9,179.3 639.6,179.3 639.6,501.6 661.1,518.2 700.5,489.7 740.1,518.2 		"/>
	</defs>
	<clipPath id="SVGID_10_">
		<use xlink:href="#SVGID_9_"  overflow="visible"/>
	</clipPath>
	<rect x="631.9" y="171.6" clip-path="url(#SVGID_10_)" fill="#E5E5E5" width="123.8" height="354.3"/>
</g>
<g>
	<defs>
		<rect id="SVGID_11_" x="60.6" y="261.9" width="71.3" height="99.7"/>
	</defs>
	<clipPath id="SVGID_12_">
		<use xlink:href="#SVGID_11_"  overflow="visible"/>
	</clipPath>
	<rect x="52.9" y="254.2" clip-path="url(#SVGID_12_)" fill="#E5E5E5" width="86.7" height="115.1"/>
</g>
<g>
	<defs>
		<rect id="SVGID_13_" x="687" y="71.1" width="72.5" height="17.1"/>
	</defs>
	<clipPath id="SVGID_14_">
		<use xlink:href="#SVGID_13_"  overflow="visible"/>
	</clipPath>
	<rect x="679.3" y="63.4" clip-path="url(#SVGID_14_)" fill="#E5E5E5" width="87.9" height="32.5"/>
</g>
<g>
	<defs>
		<rect id="SVGID_15_" x="619.1" y="71.1" width="61.7" height="17.1"/>
	</defs>
	<clipPath id="SVGID_16_">
		<use xlink:href="#SVGID_15_"  overflow="visible"/>
	</clipPath>
	<rect x="611.4" y="63.4" clip-path="url(#SVGID_16_)" fill="#E5E5E5" width="77.1" height="32.5"/>
</g>
<g>
	<defs>
		<rect id="SVGID_17_" x="549.7" y="71.1" width="63.3" height="17.1"/>
	</defs>
	<clipPath id="SVGID_18_">
		<use xlink:href="#SVGID_17_"  overflow="visible"/>
	</clipPath>
	<rect x="541.9" y="63.4" clip-path="url(#SVGID_18_)" fill="#E5E5E5" width="78.7" height="32.5"/>
</g>
<g>
	<defs>
		<rect id="SVGID_19_" x="526.5" y="71.1" width="17" height="17.1"/>
	</defs>
	<clipPath id="SVGID_20_">
		<use xlink:href="#SVGID_19_"  overflow="visible"/>
	</clipPath>
	<rect x="518.8" y="63.4" clip-path="url(#SVGID_20_)" fill="#E5E5E5" width="32.4" height="32.5"/>
</g>
<g>
	<defs>
		<rect id="SVGID_21_" x="461.7" y="71.1" width="15.4" height="17.1"/>
	</defs>
	<clipPath id="SVGID_22_">
		<use xlink:href="#SVGID_21_"  overflow="visible"/>
	</clipPath>
	<rect x="454" y="63.4" clip-path="url(#SVGID_22_)" fill="#E5E5E5" width="30.9" height="32.5"/>
</g>
<g>
	<defs>
		<rect id="SVGID_23_" x="483.3" y="71.1" width="37" height="17.1"/>
	</defs>
	<clipPath id="SVGID_24_">
		<use xlink:href="#SVGID_23_"  overflow="visible"/>
	</clipPath>
	<rect x="475.6" y="63.4" clip-path="url(#SVGID_24_)" fill="#E5E5E5" width="52.5" height="32.5"/>
</g>
<g>
	<defs>
		<path id="SVGID_25_" d="M431.4,71.1H163.3v17.1h268.1V71.1z M428.5,74v11.4H166.1V74H428.5z"/>
	</defs>
	<clipPath id="SVGID_26_">
		<use xlink:href="#SVGID_25_"  overflow="visible"/>
	</clipPath>
	<rect x="155.6" y="63.4" clip-path="url(#SVGID_26_)" fill="#E5E5E5" width="283.5" height="32.5"/>
</g>
<g>
	<defs>
		<rect id="SVGID_27_" x="49.2" y="71.1" width="91.3" height="17.1"/>
	</defs>
	<clipPath id="SVGID_28_">
		<use xlink:href="#SVGID_27_"  overflow="visible"/>
	</clipPath>
	<rect x="41.5" y="63.4" clip-path="url(#SVGID_28_)" fill="#E5E5E5" width="106.7" height="32.5"/>
</g>
<g>
	<defs>
		<line id="SVGID_29_" x1="29.2" y1="99.6" x2="770.8" y2="99.6"/>
	</defs>
	<clipPath id="SVGID_30_">
		<use xlink:href="#SVGID_29_"  overflow="visible"/>
	</clipPath>
	<rect x="21.5" y="91.9" clip-path="url(#SVGID_30_)" fill="#E5E5E5" width="756.9" height="15.4"/>
</g>
<line fill="none" stroke="#E5E5E5" stroke-width="1.5429" stroke-miterlimit="10" x1="29.2" y1="99.6" x2="770.8" y2="99.6"/>
<g>
	<defs>
		<rect id="SVGID_31_" x="171.8" y="76.8" width="5.7" height="5.7"/>
	</defs>
	<clipPath id="SVGID_32_">
		<use xlink:href="#SVGID_31_"  overflow="visible"/>
	</clipPath>
	<rect x="164.1" y="69.1" clip-path="url(#SVGID_32_)" fill="#E5E5E5" width="21.1" height="21.1"/>
</g>
<g>
	<defs>
		<rect id="SVGID_33_" x="60.6" y="210.6" width="71.3" height="14.2"/>
	</defs>
	<clipPath id="SVGID_34_">
		<use xlink:href="#SVGID_33_"  overflow="visible"/>
	</clipPath>
	<rect x="52.9" y="202.9" clip-path="url(#SVGID_34_)" fill="#E5E5E5" width="86.7" height="29.7"/>
</g>
<g>
	<defs>
		<rect id="SVGID_35_" x="213.4" y="209.1" width="154.3" height="17"/>
	</defs>
	<clipPath id="SVGID_36_">
		<use xlink:href="#SVGID_35_"  overflow="visible"/>
	</clipPath>
	<rect x="205.7" y="201.4" clip-path="url(#SVGID_36_)" fill="#CDCCCC" width="169.7" height="32.4"/>
</g>
<g>
	<defs>
		<rect id="SVGID_37_" x="213.4" y="234.5" width="237.6" height="6.2"/>
	</defs>
	<clipPath id="SVGID_38_">
		<use xlink:href="#SVGID_37_"  overflow="visible"/>
	</clipPath>
	<rect x="205.7" y="226.8" clip-path="url(#SVGID_38_)" fill="#CDCCCC" width="253" height="21.6"/>
</g>
<g>
	<g>
		<defs>
			<rect id="SVGID_39_" x="213.4" y="262.6" width="161.5" height="49.8"/>
		</defs>
		<clipPath id="SVGID_40_">
			<use xlink:href="#SVGID_39_"  overflow="visible"/>
		</clipPath>
		<rect x="205.7" y="254.8" clip-path="url(#SVGID_40_)" fill="#0C73FC" width="176.9" height="65.2"/>
	</g>
	<g>
		<defs>
			<rect id="SVGID_41_" x="213.4" y="356.5" width="161.5" height="49.8"/>
		</defs>
		<clipPath id="SVGID_42_">
			<use xlink:href="#SVGID_41_"  overflow="visible"/>
		</clipPath>
		<rect x="205.7" y="348.8" clip-path="url(#SVGID_42_)" fill="#0C73FC" width="176.9" height="65.2"/>
	</g>
	<g>
		<defs>
			<rect id="SVGID_43_" x="390.9" y="262.6" width="161.5" height="49.8"/>
		</defs>
		<clipPath id="SVGID_44_">
			<use xlink:href="#SVGID_43_"  overflow="visible"/>
		</clipPath>
		<rect x="383.2" y="254.8" clip-path="url(#SVGID_44_)" fill="#0C73FC" width="176.9" height="65.2"/>
	</g>
	<g>
		<defs>
			<rect id="SVGID_45_" x="390.9" y="356.5" width="161.5" height="49.8"/>
		</defs>
		<clipPath id="SVGID_46_">
			<use xlink:href="#SVGID_45_"  overflow="visible"/>
		</clipPath>
		<rect x="383.2" y="348.8" clip-path="url(#SVGID_46_)" fill="#0C73FC" width="176.9" height="65.2"/>
	</g>
	<g>
		<defs>
			<rect id="SVGID_47_" x="213.4" y="312.3" width="161.5" height="28.6"/>
		</defs>
		<clipPath id="SVGID_48_">
			<use xlink:href="#SVGID_47_"  overflow="visible"/>
		</clipPath>
		<rect x="205.7" y="304.6" clip-path="url(#SVGID_48_)" fill="#FFFFFF" width="176.9" height="44.1"/>
	</g>
	<g>
		<defs>
			<rect id="SVGID_49_" x="213.4" y="406.3" width="161.5" height="28.6"/>
		</defs>
		<clipPath id="SVGID_50_">
			<use xlink:href="#SVGID_49_"  overflow="visible"/>
		</clipPath>
		<rect x="205.7" y="398.6" clip-path="url(#SVGID_50_)" fill="#FFFFFF" width="176.9" height="44.1"/>
	</g>
	<g>
		<defs>
			<rect id="SVGID_51_" x="390.9" y="312.3" width="161.5" height="28.6"/>
		</defs>
		<clipPath id="SVGID_52_">
			<use xlink:href="#SVGID_51_"  overflow="visible"/>
		</clipPath>
		<rect x="383.2" y="304.6" clip-path="url(#SVGID_52_)" fill="#FFFFFF" width="176.9" height="44.1"/>
	</g>
	<g>
		<defs>
			<rect id="SVGID_53_" x="390.9" y="406.3" width="161.5" height="28.6"/>
		</defs>
		<clipPath id="SVGID_54_">
			<use xlink:href="#SVGID_53_"  overflow="visible"/>
		</clipPath>
		<rect x="383.2" y="398.6" clip-path="url(#SVGID_54_)" fill="#FFFFFF" width="176.9" height="44.1"/>
	</g>
	
		<line fill="none" stroke="#D1D1D1" stroke-width="2.3143" stroke-linecap="square" stroke-miterlimit="10" x1="227" y1="320.9" x2="299.3" y2="320.9"/>
	
		<line fill="none" stroke="#D1D1D1" stroke-width="2.3143" stroke-linecap="square" stroke-miterlimit="10" x1="227" y1="415.7" x2="299.3" y2="415.7"/>
	
		<line fill="none" stroke="#D1D1D1" stroke-width="2.3143" stroke-linecap="square" stroke-miterlimit="10" x1="404.5" y1="320.9" x2="476.8" y2="320.9"/>
	
		<line fill="none" stroke="#D1D1D1" stroke-width="2.3143" stroke-linecap="square" stroke-miterlimit="10" x1="404.5" y1="415.7" x2="476.8" y2="415.7"/>
	
		<line fill="none" stroke="#D1D1D1" stroke-width="2.3143" stroke-linecap="square" stroke-miterlimit="10" x1="227" y1="330.2" x2="251.5" y2="330.2"/>
	
		<line fill="none" stroke="#D1D1D1" stroke-width="2.3143" stroke-linecap="square" stroke-miterlimit="10" x1="227" y1="423.5" x2="251.5" y2="423.5"/>
	
		<line fill="none" stroke="#D1D1D1" stroke-width="2.3143" stroke-linecap="square" stroke-miterlimit="10" x1="404.5" y1="330.2" x2="429" y2="330.2"/>
	
		<line fill="none" stroke="#D1D1D1" stroke-width="2.3143" stroke-linecap="square" stroke-miterlimit="10" x1="404.5" y1="423.5" x2="429" y2="423.5"/>
	
		<line fill="none" stroke="#D1D1D1" stroke-width="2.3143" stroke-linecap="square" stroke-miterlimit="10" x1="259.3" y1="330.2" x2="283.8" y2="330.2"/>
	
		<line fill="none" stroke="#D1D1D1" stroke-width="2.3143" stroke-linecap="square" stroke-miterlimit="10" x1="259.3" y1="423.5" x2="283.8" y2="423.5"/>
	
		<line fill="none" stroke="#D1D1D1" stroke-width="2.3143" stroke-linecap="square" stroke-miterlimit="10" x1="436.7" y1="330.2" x2="461.3" y2="330.2"/>
	
		<line fill="none" stroke="#D1D1D1" stroke-width="2.3143" stroke-linecap="square" stroke-miterlimit="10" x1="436.7" y1="423.5" x2="461.3" y2="423.5"/>
	<polygon fill="#FFFFFF" points="263.5,299 282,275 285.8,275 301.7,291.7 311,286.4 325.6,299 	"/>
	<polygon fill="#FFFFFF" points="263.5,393 282,369 285.8,369 301.7,385.7 311,380.4 325.6,393 	"/>
	<polygon fill="#FFFFFF" points="440.5,299 459,275 462.8,275 478.7,291.7 488,286.4 502.6,299 	"/>
	<polygon fill="#FFFFFF" points="440.5,393 459,369 462.8,369 478.7,385.7 488,380.4 502.6,393 	"/>
</g>
</svg>
