<?xml version="1.0" encoding="utf-8"?>
<!-- Generator: Adobe Illustrator 18.1.1, SVG Export Plug-In . SVG Version: 6.00 Build 0)  -->
<svg version="1.1" id="Layer_1" xmlns="http://www.w3.org/2000/svg" xmlns:xlink="http://www.w3.org/1999/xlink" x="0px" y="0px"
	 viewBox="0 0 800 600" enable-background="new 0 0 800 600" xml:space="preserve">
<g>
	<defs>
		<polygon id="SVGID_1_" points="705.6,487.9 738.3,516.4 775,489 775,58.3 25,58.3 25,490.4 50.6,509.5 50.6,177.9 161.9,177.9 
			161.9,498.5 174.4,487.9 196.1,503.1 196.1,177.9 638.1,177.9 638.1,493.6 666,516.4 		"/>
	</defs>
	<clipPath id="SVGID_2_">
		<use xlink:href="#SVGID_1_"  overflow="visible"/>
	</clipPath>
	<rect x="17.2" y="50.6" clip-path="url(#SVGID_2_)" fill="#FFFFFF" width="765.5" height="473.6"/>
</g>
<g>
	<defs>
		<path id="SVGID_3_" d="M23.5,491.1l28.5,21.2v-333h108.4v322.3l14-11.9l23,16.1V179.3h439.2v315l29.2,23.9l39.6-28.5l32.7,28.5
			l38.2-28.5l0-432.8H23.5V491.1z M773.6,59.7v428.6l-35.2,26.2l-31-27l-1.7-1.5l-1.8,1.3L666,514.7l-26.4-21.8V179.3v-2.8h-2.9
			H197.5h-2.9v2.8v321l-18.5-13l-1.8-1.3l-1.7,1.4l-9.3,7.9V179.3v-2.8h-2.9H52.1h-2.9v2.8v327.4l-22.8-17v-430H773.6z"/>
	</defs>
	<clipPath id="SVGID_4_">
		<use xlink:href="#SVGID_3_"  overflow="visible"/>
	</clipPath>
	<rect x="15.8" y="49.2" clip-path="url(#SVGID_4_)" fill="#E5E5E5" width="768.4" height="476.7"/>
</g>
<g>
	<defs>
		<polygon id="SVGID_5_" points="197.5,179.3 636.7,179.3 636.7,494.3 630.6,489.7 594.8,518.2 555.4,489.7 514.8,518.2 
			477.8,489.7 440.8,518.2 401.4,489.7 366.8,518.2 328.6,489.7 288.1,518.2 251.1,489.7 214.1,518.2 197.5,505.8 		"/>
	</defs>
	<clipPath id="SVGID_6_">
		<use xlink:href="#SVGID_5_"  overflow="visible"/>
	</clipPath>
	<rect x="189.8" y="171.6" clip-path="url(#SVGID_6_)" fill="#E5E5E5" width="454.6" height="354.3"/>
</g>
<g>
	<defs>
		<path id="SVGID_7_" d="M745.1,159.4c0-22-17.9-39.9-39.9-39.9s-39.9,17.8-39.9,39.9c0,22,17.9,39.9,39.9,39.9
			S745.1,181.4,745.1,159.4C745.1,159.4,745.1,181.4,745.1,159.4z"/>
	</defs>
	<clipPath id="SVGID_8_">
		<use xlink:href="#SVGID_7_"  overflow="visible"/>
	</clipPath>
	<rect x="657.5" y="111.8" clip-path="url(#SVGID_8_)" fill="#E5E5E5" width="95.3" height="95.2"/>
</g>
<g>
	<defs>
		<polygon id="SVGID_9_" points="52.1,512.4 52.1,179.3 160.4,179.3 160.4,501.6 138.9,518.2 99.5,489.7 59.9,518.2 		"/>
	</defs>
	<clipPath id="SVGID_10_">
		<use xlink:href="#SVGID_9_"  overflow="visible"/>
	</clipPath>
	<rect x="44.3" y="171.6" clip-path="url(#SVGID_10_)" fill="#E5E5E5" width="123.8" height="354.3"/>
</g>
<g>
	<defs>
		<rect id="SVGID_11_" x="668.1" y="261.9" width="71.3" height="99.7"/>
	</defs>
	<clipPath id="SVGID_12_">
		<use xlink:href="#SVGID_11_"  overflow="visible"/>
	</clipPath>
	<rect x="660.4" y="254.2" clip-path="url(#SVGID_12_)" fill="#E5E5E5" width="86.7" height="115.1"/>
</g>
<g>
	<defs>
		<rect id="SVGID_13_" x="40.5" y="71.1" width="72.5" height="17.1"/>
	</defs>
	<clipPath id="SVGID_14_">
		<use xlink:href="#SVGID_13_"  overflow="visible"/>
	</clipPath>
	<rect x="32.8" y="63.4" clip-path="url(#SVGID_14_)" fill="#E5E5E5" width="87.9" height="32.5"/>
</g>
<g>
	<defs>
		<rect id="SVGID_15_" x="119.2" y="71.1" width="61.7" height="17.1"/>
	</defs>
	<clipPath id="SVGID_16_">
		<use xlink:href="#SVGID_15_"  overflow="visible"/>
	</clipPath>
	<rect x="111.5" y="63.4" clip-path="url(#SVGID_16_)" fill="#E5E5E5" width="77.1" height="32.5"/>
</g>
<g>
	<defs>
		<rect id="SVGID_17_" x="187.1" y="71.1" width="63.3" height="17.1"/>
	</defs>
	<clipPath id="SVGID_18_">
		<use xlink:href="#SVGID_17_"  overflow="visible"/>
	</clipPath>
	<rect x="179.4" y="63.4" clip-path="url(#SVGID_18_)" fill="#E5E5E5" width="78.7" height="32.5"/>
</g>
<g>
	<defs>
		<rect id="SVGID_19_" x="256.5" y="71.1" width="17" height="17.1"/>
	</defs>
	<clipPath id="SVGID_20_">
		<use xlink:href="#SVGID_19_"  overflow="visible"/>
	</clipPath>
	<rect x="248.8" y="63.4" clip-path="url(#SVGID_20_)" fill="#E5E5E5" width="32.4" height="32.5"/>
</g>
<g>
	<defs>
		<rect id="SVGID_21_" x="322.9" y="71.1" width="15.4" height="17.1"/>
	</defs>
	<clipPath id="SVGID_22_">
		<use xlink:href="#SVGID_21_"  overflow="visible"/>
	</clipPath>
	<rect x="315.1" y="63.4" clip-path="url(#SVGID_22_)" fill="#E5E5E5" width="30.9" height="32.5"/>
</g>
<g>
	<defs>
		<rect id="SVGID_23_" x="279.7" y="71.1" width="37" height="17.1"/>
	</defs>
	<clipPath id="SVGID_24_">
		<use xlink:href="#SVGID_23_"  overflow="visible"/>
	</clipPath>
	<rect x="271.9" y="63.4" clip-path="url(#SVGID_24_)" fill="#E5E5E5" width="52.5" height="32.5"/>
</g>
<g>
	<defs>
		<path id="SVGID_25_" d="M368.6,88.2h268.1V71.1H368.6V88.2z M633.9,74v11.4H371.5V74H633.9z"/>
	</defs>
	<clipPath id="SVGID_26_">
		<use xlink:href="#SVGID_25_"  overflow="visible"/>
	</clipPath>
	<rect x="360.9" y="63.4" clip-path="url(#SVGID_26_)" fill="#E5E5E5" width="283.5" height="32.5"/>
</g>
<g>
	<defs>
		<rect id="SVGID_27_" x="659.5" y="71.1" width="91.3" height="17.1"/>
	</defs>
	<clipPath id="SVGID_28_">
		<use xlink:href="#SVGID_27_"  overflow="visible"/>
	</clipPath>
	<rect x="651.8" y="63.4" clip-path="url(#SVGID_28_)" fill="#E5E5E5" width="106.7" height="32.5"/>
</g>
<g>
	<defs>
		<line id="SVGID_29_" x1="770.8" y1="99.6" x2="29.2" y2="99.6"/>
	</defs>
	<clipPath id="SVGID_30_">
		<use xlink:href="#SVGID_29_"  overflow="visible"/>
	</clipPath>
	<rect x="21.5" y="91.9" clip-path="url(#SVGID_30_)" fill="#E5E5E5" width="756.9" height="15.4"/>
</g>
<line fill="none" stroke="#E5E5E5" stroke-width="1.5429" stroke-miterlimit="10" x1="770.8" y1="99.6" x2="29.2" y2="99.6"/>
<g>
	<defs>
		<rect id="SVGID_31_" x="622.5" y="76.8" width="5.7" height="5.7"/>
	</defs>
	<clipPath id="SVGID_32_">
		<use xlink:href="#SVGID_31_"  overflow="visible"/>
	</clipPath>
	<rect x="614.7" y="69.1" clip-path="url(#SVGID_32_)" fill="#E5E5E5" width="21.1" height="21.1"/>
</g>
<g>
	<defs>
		<rect id="SVGID_33_" x="668.1" y="210.6" width="71.3" height="14.2"/>
	</defs>
	<clipPath id="SVGID_34_">
		<use xlink:href="#SVGID_33_"  overflow="visible"/>
	</clipPath>
	<rect x="660.4" y="202.9" clip-path="url(#SVGID_34_)" fill="#E5E5E5" width="86.7" height="29.7"/>
</g>
<g>
	<defs>
		<rect id="SVGID_35_" x="432.3" y="209.1" width="154.3" height="17"/>
	</defs>
	<clipPath id="SVGID_36_">
		<use xlink:href="#SVGID_35_"  overflow="visible"/>
	</clipPath>
	<rect x="424.6" y="201.4" clip-path="url(#SVGID_36_)" fill="#CDCCCC" width="169.7" height="32.4"/>
</g>
<g>
	<defs>
		<rect id="SVGID_37_" x="349" y="234.5" width="237.6" height="6.2"/>
	</defs>
	<clipPath id="SVGID_38_">
		<use xlink:href="#SVGID_37_"  overflow="visible"/>
	</clipPath>
	<rect x="341.3" y="226.8" clip-path="url(#SVGID_38_)" fill="#CDCCCC" width="253" height="21.6"/>
</g>
<g>
	<defs>
		<rect id="SVGID_39_" x="425.1" y="262.6" width="161.5" height="49.8"/>
	</defs>
	<clipPath id="SVGID_40_">
		<use xlink:href="#SVGID_39_"  overflow="visible"/>
	</clipPath>
	<rect x="417.4" y="254.8" clip-path="url(#SVGID_40_)" fill="#0C73FC" width="176.9" height="65.2"/>
</g>
<g>
	<defs>
		<rect id="SVGID_41_" x="425.1" y="356.5" width="161.5" height="49.8"/>
	</defs>
	<clipPath id="SVGID_42_">
		<use xlink:href="#SVGID_41_"  overflow="visible"/>
	</clipPath>
	<rect x="417.4" y="348.8" clip-path="url(#SVGID_42_)" fill="#0C73FC" width="176.9" height="65.2"/>
</g>
<g>
	<defs>
		<rect id="SVGID_43_" x="247.7" y="262.6" width="161.5" height="49.8"/>
	</defs>
	<clipPath id="SVGID_44_">
		<use xlink:href="#SVGID_43_"  overflow="visible"/>
	</clipPath>
	<rect x="239.9" y="254.8" clip-path="url(#SVGID_44_)" fill="#0C73FC" width="176.9" height="65.2"/>
</g>
<g>
	<defs>
		<rect id="SVGID_45_" x="247.7" y="356.5" width="161.5" height="49.8"/>
	</defs>
	<clipPath id="SVGID_46_">
		<use xlink:href="#SVGID_45_"  overflow="visible"/>
	</clipPath>
	<rect x="239.9" y="348.8" clip-path="url(#SVGID_46_)" fill="#0C73FC" width="176.9" height="65.2"/>
</g>
<g>
	<defs>
		<rect id="SVGID_47_" x="425.1" y="312.3" width="161.5" height="28.6"/>
	</defs>
	<clipPath id="SVGID_48_">
		<use xlink:href="#SVGID_47_"  overflow="visible"/>
	</clipPath>
	<rect x="417.4" y="304.6" clip-path="url(#SVGID_48_)" fill="#FFFFFF" width="176.9" height="44.1"/>
</g>
<g>
	<defs>
		<rect id="SVGID_49_" x="425.1" y="406.3" width="161.5" height="28.6"/>
	</defs>
	<clipPath id="SVGID_50_">
		<use xlink:href="#SVGID_49_"  overflow="visible"/>
	</clipPath>
	<rect x="417.4" y="398.6" clip-path="url(#SVGID_50_)" fill="#FFFFFF" width="176.9" height="44.1"/>
</g>
<g>
	<defs>
		<rect id="SVGID_51_" x="247.7" y="312.3" width="161.5" height="28.6"/>
	</defs>
	<clipPath id="SVGID_52_">
		<use xlink:href="#SVGID_51_"  overflow="visible"/>
	</clipPath>
	<rect x="239.9" y="304.6" clip-path="url(#SVGID_52_)" fill="#FFFFFF" width="176.9" height="44.1"/>
</g>
<g>
	<defs>
		<rect id="SVGID_53_" x="247.7" y="406.3" width="161.5" height="28.6"/>
	</defs>
	<clipPath id="SVGID_54_">
		<use xlink:href="#SVGID_53_"  overflow="visible"/>
	</clipPath>
	<rect x="239.9" y="398.6" clip-path="url(#SVGID_54_)" fill="#FFFFFF" width="176.9" height="44.1"/>
</g>
<line fill="none" stroke="#D1D1D1" stroke-width="2.3143" stroke-linecap="square" stroke-miterlimit="10" x1="573" y1="320.9" x2="500.7" y2="320.9"/>
<line fill="none" stroke="#D1D1D1" stroke-width="2.3143" stroke-linecap="square" stroke-miterlimit="10" x1="573" y1="415.7" x2="500.7" y2="415.7"/>
<line fill="none" stroke="#D1D1D1" stroke-width="2.3143" stroke-linecap="square" stroke-miterlimit="10" x1="395.5" y1="320.9" x2="323.2" y2="320.9"/>
<line fill="none" stroke="#D1D1D1" stroke-width="2.3143" stroke-linecap="square" stroke-miterlimit="10" x1="395.5" y1="415.7" x2="323.2" y2="415.7"/>
<line fill="none" stroke="#D1D1D1" stroke-width="2.3143" stroke-linecap="square" stroke-miterlimit="10" x1="573" y1="330.2" x2="548.5" y2="330.2"/>
<line fill="none" stroke="#D1D1D1" stroke-width="2.3143" stroke-linecap="square" stroke-miterlimit="10" x1="573" y1="423.5" x2="548.5" y2="423.5"/>
<line fill="none" stroke="#D1D1D1" stroke-width="2.3143" stroke-linecap="square" stroke-miterlimit="10" x1="395.5" y1="330.2" x2="371" y2="330.2"/>
<line fill="none" stroke="#D1D1D1" stroke-width="2.3143" stroke-linecap="square" stroke-miterlimit="10" x1="395.5" y1="423.5" x2="371" y2="423.5"/>
<line fill="none" stroke="#D1D1D1" stroke-width="2.3143" stroke-linecap="square" stroke-miterlimit="10" x1="540.7" y1="330.2" x2="516.2" y2="330.2"/>
<line fill="none" stroke="#D1D1D1" stroke-width="2.3143" stroke-linecap="square" stroke-miterlimit="10" x1="540.7" y1="423.5" x2="516.2" y2="423.5"/>
<line fill="none" stroke="#D1D1D1" stroke-width="2.3143" stroke-linecap="square" stroke-miterlimit="10" x1="363.3" y1="330.2" x2="338.7" y2="330.2"/>
<line fill="none" stroke="#D1D1D1" stroke-width="2.3143" stroke-linecap="square" stroke-miterlimit="10" x1="363.3" y1="423.5" x2="338.7" y2="423.5"/>
<polygon fill="#FFFFFF" points="297.4,299 315.8,275 319.6,275 335.6,291.7 344.9,286.4 359.4,299 "/>
<polygon fill="#FFFFFF" points="297.4,393 315.8,369 319.6,369 335.6,385.7 344.9,380.4 359.4,393 "/>
<polygon fill="#FFFFFF" points="474.8,299 493.3,275 497.1,275 513,291.7 522.3,286.4 536.9,299 "/>
<polygon fill="#FFFFFF" points="474.8,393 493.3,369 497.1,369 513,385.7 522.3,380.4 536.9,393 "/>
</svg>
